{"title":"Star Wars Episode V 1980 1080p mHD Blu-Ray x264 AC3 5.1 ESub -DD","uid":15890483,"size":5909735938,"categoryP":"video","categoryS":"hd___movies","magnet":"?xt=urn:btih:97d1fad04eb0de70da281fe553886595e70323e9&amp;dn=Star+Wars+Episode+V+1980+1080p+mHD+Blu-Ray+x264+AC3+5.1+ESub+-DD&amp;tr=udp%3A%2F%2Ftracker.leechers-paradise.org%3A6969&amp;tr=udp%3A%2F%2Fzer0day.ch%3A1337&amp;tr=udp%3A%2F%2Fopen.demonii.com%3A1337&amp;tr=udp%3A%2F%2Ftracker.coppersurfer.tk%3A6969&amp;tr=udp%3A%2F%2Fexodus.desync.com%3A6969","seeders":3,"leechers":8,"uploader":"SaM","files":3,"time":1474727764,"description":"\n1080p Blu-ray Rip x264\r\n\r\nEnglish DDS 5.1 Audio\r\nHindi DDS 2.0 Audio\r\n\r\nEnglish|French|Spanish|Dutch|Portuguese|Finnish|Swedish | Norwegian| Danish| | Subtitles\r\n+\r\nSDH subs\r\n \nhttps://extraimago.com/image/w9ip \nhttps://extraimago.com/image/w9iY \nhttps://extraimago.com/image/w9iC \nhttps://extraimago.com/image/w9iB \nhttps://extraimago.com/image/w9ie \nhttps://extraimago.com/image/w9iK \nhttps://extraimago.com/image/w9i0 \nhttps://extraimago.com/image/w9iU \nhttps://extraimago.com/image/w9i9 \nhttps://extraimago.com/image/w9ib \nhttps://extraimago.com/image/w9id \nhttps://extraimago.com/image/w9iI \nhttps://extraimago.com/image/w9ii \nhttps://extraimago.com/image/w9iR \nhttps://extraimago.com/image/w9iL \nhttps://extraimago.com/image/w9iy\r\n\r\nSpecs:\r\nSource: French Digitally Remastered 10 Disc Set @ DDR\r\n\r\nFormat : Matroska\r\nFile size : 5.44 GiB\r\nDuration : 2 h 7 min\r\nOverall bit rate : 6 116 kb/s\r\nEncoded date : UTC 2016-09-24 02:05:46\r\n\r\nVideo\r\nID : 1\r\nFormat : AVC\r\nFormat/Info : Advanced Video Codec\r\nFormat profile :   \r\nFormat settings, CABAC : Yes\r\nFormat settings, ReFrames : 5 frames\r\nCodec ID : V_MPEG4/ISO/AVC\r\nDuration : 2 h 7 min\r\nBit rate : 5 000 kb/s\r\nWidth : 1 920 pixels\r\nHeight : 816 pixels\r\nDisplay aspect ratio : 2.35:1\r\nFrame rate mode : Constant\r\nFrame rate : 23.976 (24000/1001) FPS\r\nColor space : YUV\r\nChroma subsampling : 4:2:0\r\nBit depth : 8 bits\r\nScan type : Progressive\r\nBits/(Pixel*Frame) : 0.133\r\nStream size : 4.45 GiB (82%)\r\nDefault : Yes\r\nForced : No\r\nColor range : Limited\r\nColor primaries : BT.709\r\nTransfer characteristics : BT.709\r\nMatrix coefficients : BT.709\r\n\r\nAudio #1\r\nID : 2\r\nFormat : AC-3\r\nFormat/Info : Audio Coding 3\r\nMode extension : CM (complete main)\r\nFormat settings, Endianness : Big\r\nCodec ID : A_AC3\r\nDuration : 2 h 7 min\r\nBit rate mode : Constant\r\nBit rate : 448 kb/s\r\nChannel(s) : 6 channels\r\nChannel positions : Front: L C R, Side: L R, LFE\r\nSampling rate : 48.0 kHz\r\nFrame rate : 31.250 FPS (1536 spf)\r\nCompression mode : Lossy\r\nStream size : 408 MiB (7%)\r\nLanguage : English\r\nDefault : Yes\r\nForced : No\r\n\r\nAudio #2\r\nID : 3\r\nFormat : AC-3\r\nFormat/Info : Audio Coding 3\r\nMode extension : CM (complete main)\r\nFormat settings, Endianness : Big\r\nCodec ID : A_AC3\r\nDuration : 2 h 7 min\r\nBit rate mode : Constant\r\nBit rate : 192 kb/s\r\nChannel(s) : 2 channels\r\nChannel positions : Front: L R\r\nSampling rate : 48.0 kHz\r\nFrame rate : 31.250 FPS (1536 spf)\r\nCompression mode : Lossy\r\nStream size : 175 MiB (3%)\r\nLanguage : Hindi\r\nDefault : No\r\nForced : No","torrent":{"xt":"urn:btih:97d1fad04eb0de70da281fe553886595e70323e9","amp;dn":"Star+Wars+Episode+V+1980+1080p+mHD+Blu-Ray+x264+AC3+5.1+ESub+-DD","amp;tr":["udp%3A%2F%2Ftracker.leechers-paradise.org%3A6969","udp%3A%2F%2Fzer0day.ch%3A1337","udp%3A%2F%2Fopen.demonii.com%3A1337","udp%3A%2F%2Ftracker.coppersurfer.tk%3A6969","udp%3A%2F%2Fexodus.desync.com%3A6969"],"infoHash":"97d1fad04eb0de70da281fe553886595e70323e9","infoHashBuffer":{"type":"Buffer","data":[151,209,250,208,78,176,222,112,218,40,31,229,83,136,101,149,231,3,35,233]},"announce":[],"urlList":[]}}